<?xml version="1.0" encoding="UTF-8"?>
<svg version="1.1" xmlns="http://www.w3.org/2000/svg" width="1155" height="1155">
<path d="M0 0 C2.94351582 0.00460809 5.88661601 -0.00222697 8.83007812 -0.02050781 C87.59701073 -0.50421761 166.48010425 16.3746904 267.50170898 62.31567383 C268.54713867 62.8404834 269.59256836 63.36529297 270.66967773 63.90600586 C306.58790372 82.02033526 340.63329539 104.51739513 371.50170898 130.31567383 C372.0935498 130.80841797 372.68539062 131.30116211 373.29516602 131.80883789 C379.63092784 137.09130373 385.87526424 142.46436901 391.97265625 148.02197266 C393.53820781 149.44183528 395.11112566 150.85367766 396.69555664 152.25244141 C403.36564044 158.15564392 409.69616502 164.35628137 415.97998047 170.66357422 C417.69378131 172.38276052 419.41289981 174.09649966 421.13256836 175.80981445 C426.80338469 181.47684335 432.31982586 187.19224482 437.50170898 193.31567383 C438.54643121 194.50766824 439.59330412 195.69778115 440.64233398 196.88598633 C447.42359466 204.62215702 453.94654562 212.50209269 460.21948242 220.65551758 C461.44142955 222.23762734 462.67823669 223.80822678 463.91577148 225.37817383 C487.22123326 255.13628789 506.47265088 287.63561048 523.50170898 321.31567383 C523.9913916 322.27892578 524.48107422 323.24217773 524.9855957 324.23461914 C552.7392906 379.19297442 569.98803987 439.55895293 578.31420898 500.44067383 C578.46339783 501.51957382 578.46339783 501.51957382 578.61560059 502.62026978 C581.80130803 525.98134058 582.8571945 549.26268841 582.81738281 572.81396484 C582.81277473 575.75748067 582.81960978 578.70058085 582.83789062 581.64404297 C583.32160042 660.41097557 566.44269242 739.29406909 520.50170898 840.31567383 C519.71449463 841.88381836 519.71449463 841.88381836 518.91137695 843.48364258 C500.79704755 879.40186857 478.29998768 913.44726023 452.50170898 944.31567383 C452.00896484 944.90751465 451.5162207 945.49935547 451.00854492 946.10913086 C445.72607908 952.44489268 440.3530138 958.68922909 434.79541016 964.78662109 C433.37554753 966.35217265 431.96370515 967.9250905 430.56494141 969.50952148 C424.6617389 976.17960529 418.46110144 982.51012986 412.15380859 988.79394531 C410.43462229 990.50774616 408.72088315 992.22686465 407.00756836 993.9465332 C401.34053947 999.61734953 395.62513799 1005.1337907 389.50170898 1010.31567383 C388.30971458 1011.36039605 387.11960166 1012.40726897 385.93139648 1013.45629883 C378.19522579 1020.2375595 370.31529012 1026.76051046 362.16186523 1033.03344727 C360.57975547 1034.2553944 359.00915603 1035.49220154 357.43920898 1036.72973633 C327.68109492 1060.03519811 295.18177233 1079.28661572 261.50170898 1096.31567383 C260.53845703 1096.80535645 259.57520508 1097.29503906 258.58276367 1097.79956055 C203.6244084 1125.55325544 143.25842988 1142.80200471 82.37670898 1151.12817383 C81.29780899 1151.27736267 81.29780899 1151.27736267 80.19711304 1151.42956543 C56.83604223 1154.61527287 33.5546944 1155.67115934 10.00341797 1155.63134766 C7.05990214 1155.62673957 4.11680196 1155.63357462 1.17333984 1155.65185547 C-77.59359276 1156.13556527 -156.47668628 1139.25665726 -257.49829102 1093.31567383 C-259.06643555 1092.52845947 -259.06643555 1092.52845947 -260.66625977 1091.7253418 C-296.58448575 1073.6110124 -330.62987742 1051.11395253 -361.49829102 1025.31567383 C-362.09013184 1024.82292969 -362.68197266 1024.33018555 -363.29174805 1023.82250977 C-369.62750987 1018.54004392 -375.87184627 1013.16697864 -381.96923828 1007.609375 C-383.53478984 1006.18951238 -385.10770769 1004.77766999 -386.69213867 1003.37890625 C-393.36222248 997.47570374 -399.69274705 991.27506629 -405.9765625 984.96777344 C-407.69036334 983.24858713 -409.40948184 981.534848 -411.12915039 979.8215332 C-416.79996672 974.15450431 -422.31640789 968.43910283 -427.49829102 962.31567383 C-428.54301324 961.12367942 -429.58988615 959.9335665 -430.63891602 958.74536133 C-437.42017669 951.00919064 -443.94312765 943.12925497 -450.21606445 934.97583008 C-451.43801158 933.39372031 -452.67481872 931.82312088 -453.91235352 930.25317383 C-477.2178153 900.49505976 -496.46923291 867.99573717 -513.49829102 834.31567383 C-514.23281494 832.8707959 -514.23281494 832.8707959 -514.98217773 831.39672852 C-542.73587263 776.43837324 -559.9846219 716.07239473 -568.31079102 655.19067383 C-568.45997986 654.11177383 -568.45997986 654.11177383 -568.61218262 653.01107788 C-571.79789006 629.65000707 -572.85377653 606.36865925 -572.81396484 582.81738281 C-572.80935676 579.87386699 -572.81619181 576.93076681 -572.83447266 573.98730469 C-573.31818245 495.22037208 -556.43927445 416.33727857 -510.49829102 315.31567383 C-509.97348145 314.27024414 -509.44867188 313.22481445 -508.90795898 312.14770508 C-490.79362958 276.22947909 -468.29656971 242.18408742 -442.49829102 211.31567383 C-442.00554687 210.72383301 -441.51280273 210.13199219 -441.00512695 209.5222168 C-435.72266111 203.18645498 -430.34959583 196.94211857 -424.79199219 190.84472656 C-423.37212957 189.279175 -421.96028718 187.70625716 -420.56152344 186.12182617 C-414.65832093 179.45174237 -408.45768347 173.1212178 -402.15039062 166.83740234 C-400.43120432 165.1236015 -398.71746518 163.404483 -397.00415039 161.68481445 C-391.3371215 156.01399812 -385.62172002 150.49755695 -379.49829102 145.31567383 C-378.30629661 144.2709516 -377.11618369 143.22407869 -375.92797852 142.17504883 C-368.19180782 135.39378816 -360.31187215 128.87083719 -352.15844727 122.59790039 C-350.5763375 121.37595326 -349.00573807 120.13914612 -347.43579102 118.90161133 C-317.67767695 95.59614955 -285.17835436 76.34473194 -251.49829102 59.31567383 C-250.05341309 58.5811499 -250.05341309 58.5811499 -248.5793457 57.83178711 C-193.62099043 30.07809221 -133.25501191 12.82934295 -72.37329102 4.50317383 C-71.29439102 4.35398499 -71.29439102 4.35398499 -70.19369507 4.20178223 C-46.83262426 1.01607478 -23.55127644 -0.03981168 0 0 Z " fill="#F6FEFE" transform="translate(572.498291015625,-0.315673828125)"/>
<path d="M0 0 C0.79422363 0.23106445 1.58844727 0.46212891 2.40673828 0.70019531 C25.33750199 7.4733542 42.10148343 18.18887729 59.3203125 34.53125 C61.93668752 37.07032104 61.93668752 37.07032104 65 39 C65.63164062 38.33355469 66.26328125 37.66710937 66.9140625 36.98046875 C84.40160028 18.96376916 104.44860341 6.17199864 129 0 C129.93062256 -0.25442871 130.86124512 -0.50885742 131.82006836 -0.77099609 C140.23725881 -2.93550825 148.14176387 -3.47154496 156.8125 -3.375 C157.79904068 -3.36802094 157.79904068 -3.36802094 158.80551147 -3.36090088 C193.31790745 -3.07502973 222.19837768 11.23388521 246.3984375 35.39453125 C259.53056229 49.28693695 268.95948269 66.58811039 274 85 C274.44859375 86.57201172 274.44859375 86.57201172 274.90625 88.17578125 C277.16218057 97.73215379 277.31919585 107.29000932 277.375 117.0625 C277.38285522 117.73655884 277.39071045 118.41061768 277.39880371 119.10510254 C277.52388112 132.92153955 275.41796403 145.68636807 270.3125 158.5625 C269.96509766 159.45235596 269.61769531 160.34221191 269.25976562 161.2590332 C260.97099932 181.91934326 246.74861307 197.37990157 231.2043457 212.97265625 C230.26005298 213.92323675 229.3159413 214.87399713 228.37199402 215.82492065 C225.31007729 218.90759302 222.2430904 221.98519471 219.17578125 225.0625 C218.10962688 226.13271163 217.04350252 227.20295316 215.97740746 228.27322388 C210.96737604 233.30223873 205.95498093 238.32888284 200.93964034 243.35260296 C195.19229977 249.10971159 189.45334022 254.87500867 183.72134715 260.64739704 C179.26016345 265.13891594 174.79116394 269.6225643 170.31643552 274.1005888 C167.65744541 276.761908 165.00173355 279.42629811 162.35433388 282.09915161 C141.44917862 303.1949069 141.44917862 303.1949069 129 311 C127.89574173 311.72098877 126.79148346 312.44197754 125.65376282 313.18481445 C118.45488713 317.79631935 110.94505298 320.65186934 102.875 323.375 C101.88580566 323.70902832 100.89661133 324.04305664 99.87744141 324.38720703 C76.77120951 331.82391543 50.02327312 331.70493898 27 324 C26.30535645 323.77006348 25.61071289 323.54012695 24.89501953 323.30322266 C4.99168925 316.49203213 -11.23622709 304.23994419 -25.93994141 289.46411133 C-26.95787889 288.45189876 -27.97643845 287.44031149 -28.99555969 286.42929077 C-31.72355351 283.71901006 -34.442155 280.99950026 -37.15842867 278.27747941 C-39.44396867 275.98881533 -41.73413574 273.70480827 -44.02423704 271.42070979 C-49.43540902 266.02350992 -54.83884207 260.61865028 -60.23730469 255.20874023 C-65.76910658 249.66546619 -71.31355756 244.13508366 -76.86447966 238.61096174 C-81.66541591 233.83232145 -86.45840018 229.04580451 -91.24528062 224.25308436 C-94.08875447 221.40627253 -96.93490441 218.562292 -99.78874588 215.72587013 C-115.67781931 199.92439294 -129.90064409 184.78191785 -139 164 C-139.28746094 163.34918457 -139.57492188 162.69836914 -139.87109375 162.02783203 C-151.69848538 134.65995636 -151.87257262 100.688204 -141 73 C-127.78723433 42.33979158 -106.20518504 19.78730093 -76 6 C-75.12988281 5.59007812 -74.25976562 5.18015625 -73.36328125 4.7578125 C-51.55222561 -4.79609642 -22.67972089 -6.76791671 0 0 Z " fill="#3FA2BB" transform="translate(160,419)"/>
<path d="M0 0 C0.79422363 0.23106445 1.58844727 0.46212891 2.40673828 0.70019531 C36.5580143 10.78760547 58.02113111 32.87055466 82.75390625 57.515625 C83.74081178 58.4984684 84.72774482 59.48128418 85.71470451 60.46407318 C90.35178548 65.08220798 94.9865193 69.70268243 99.61833817 74.32609487 C104.90902765 79.60701355 110.20790739 84.87953257 115.51385933 90.14511514 C119.6556132 94.25646552 123.78942898 98.37569465 127.9176535 102.50062919 C130.3654865 104.94614197 132.81632509 107.38842278 135.27575874 109.82227325 C152.89417569 127.2825183 168.86988174 145.19476068 177.5 168.8125 C177.74347168 169.46919678 177.98694336 170.12589355 178.23779297 170.80249023 C178.93389267 172.8508742 179.45867973 174.90541066 180 177 C180.26364853 177.76058716 180.52729706 178.52117432 180.79893494 179.30480957 C181.70460175 183.07703027 182.07499343 186.20636324 180.00259781 189.66417503 C176.31749728 194.42083975 171.87912565 198.49427352 167.53515625 202.63671875 C166.14106645 204.00840971 164.74961549 205.38278732 163.36070251 206.75971985 C159.70896583 210.36577433 156.02264792 213.9343369 152.32781982 217.49615479 C148.55952251 221.14139737 144.82523014 224.82111821 141.08789062 228.49804688 C133.75805131 235.69943 126.39119868 242.86164541 119 250 C119 246.17632823 120.56841778 243.66535041 122.3125 240.375 C130.81147168 223.88137718 132.84485264 206.38768285 127.3125 188.484375 C119.780012 168.48741281 103.66126821 154.34362667 88.8713665 139.56978393 C86.88906529 137.58856691 84.9097807 135.60434879 82.93040133 133.62021333 C78.25652691 128.93532565 73.57744799 124.25568265 68.89501953 119.5793457 C64.09369377 114.7840707 59.30165092 109.97965899 54.51398897 105.17074507 C50.3713099 101.01036716 46.22275755 96.85590876 42.06959867 92.70599252 C39.60290804 90.24109964 37.1384033 87.77412554 34.67964172 85.30132103 C31.93751923 82.54411696 29.18317443 79.79931775 26.42773438 77.05541992 C25.6336467 76.25368851 24.83955902 75.45195709 24.02140808 74.62593079 C11.68883314 62.4064466 -3.23370863 52.16228074 -21 51 C-21.69609375 50.95230469 -22.3921875 50.90460938 -23.109375 50.85546875 C-42.37657376 49.70861168 -58.53894467 54.61049383 -73.375 67.4375 C-86.77477573 80.19715905 -93.77725207 95.90483392 -94.27734375 114.28320312 C-94.53125054 133.45316602 -88.86191066 149.74442313 -75.43359375 163.66796875 C-72.68768077 166.37481214 -69.86100992 168.99029849 -67.03515625 171.61328125 C-66.16544189 172.43916748 -65.29572754 173.26505371 -64.3996582 174.1159668 C-62.66106661 175.76228633 -60.89825822 177.3834779 -59.11010742 178.97583008 C-53.19671402 184.58606363 -53.19671402 184.58606363 -52.66845703 188.38305664 C-52.94575878 190.97440262 -53.46487981 193.45019925 -54 196 C-56.02271839 225.27934939 -50.06109011 258.44344141 -30.4375 281.5 C-29.2309375 282.7375 -29.2309375 282.7375 -28 284 C-28.33 284.66 -28.66 285.32 -29 286 C-40.68735153 274.40656431 -52.36286031 262.80134838 -64.02484608 251.18240261 C-69.44136488 245.78640932 -74.86152485 240.39417568 -80.29077148 235.01098633 C-85.02917995 230.31275517 -89.7602419 225.6072634 -94.48302764 220.89332634 C-96.97827325 218.40324383 -99.47677433 215.91666229 -101.9841404 213.43877983 C-117.28048453 198.31503513 -130.31153831 183.84348111 -139 164 C-139.28746094 163.34918457 -139.57492188 162.69836914 -139.87109375 162.02783203 C-151.69848538 134.65995636 -151.87257262 100.688204 -141 73 C-127.78723433 42.33979158 -106.20518504 19.78730093 -76 6 C-75.12988281 5.59007812 -74.25976562 5.18015625 -73.36328125 4.7578125 C-51.55222561 -4.79609642 -22.67972089 -6.76791671 0 0 Z " fill="#56708C" transform="translate(160,419)"/>
<path d="M0 0 C0.98654068 0.00697906 0.98654068 0.00697906 1.99301147 0.01409912 C36.50540745 0.29997027 65.38587768 14.60888521 89.5859375 38.76953125 C102.71806229 52.66193695 112.14698269 69.96311039 117.1875 88.375 C117.4865625 89.42300781 117.785625 90.47101563 118.09375 91.55078125 C120.34968057 101.10715379 120.50669585 110.66500932 120.5625 120.4375 C120.57035522 121.11155884 120.57821045 121.78561768 120.58630371 122.48010254 C120.71138112 136.29653955 118.60546403 149.06136807 113.5 161.9375 C113.15259766 162.82735596 112.80519531 163.71721191 112.44726562 164.6340332 C104.36689165 184.7749113 90.68517512 200.063559 75.45483398 215.22119141 C74.63421982 216.0419516 73.81360565 216.86271179 72.96812439 217.70834351 C70.29231457 220.38346433 67.61299515 223.05503944 64.93359375 225.7265625 C63.06293695 227.59535151 61.19250282 229.46436344 59.32228088 231.33358765 C54.92592853 235.72685169 50.5270371 240.11756398 46.12719065 244.50732839 C41.11177327 249.51150628 36.09924946 254.5185784 31.08694732 259.52587628 C20.79031173 269.8121042 10.49010983 280.09475589 0.1875 290.375 C0.1875 286.73912682 0.8816683 286.25435263 3.1875 283.5625 C11.69664811 272.90457712 16.90494825 261.19580541 21.1875 248.375 C21.50589844 247.44300781 21.82429688 246.51101563 22.15234375 245.55078125 C31.13265282 216.37594632 26.69724135 183.07843642 12.65454102 156.34228516 C8.25875005 148.29549665 3.29935301 141.23065815 -2.8125 134.375 C-3.39196884 133.70634918 -3.97143768 133.03769836 -4.56846619 132.3487854 C-12.67696537 123.11970139 -21.49552686 114.56743407 -30.19140625 105.8984375 C-31.97238216 104.11932959 -33.75313525 102.3399986 -35.53367615 100.56045532 C-39.71769307 96.37984709 -43.90392655 92.20146913 -48.09127897 88.02420199 C-53.33464582 82.79318543 -58.57449392 77.55864839 -63.81445312 72.32421875 C-73.14434291 63.00501325 -82.47730716 53.68889318 -91.8125 44.375 C-83.63495706 27.23738479 -58.71975977 13.84912977 -41.8125 7.375 C-37.18736856 5.86939515 -32.52810011 4.56045914 -27.8125 3.375 C-26.88187744 3.12057129 -25.95125488 2.86614258 -24.99243164 2.60400391 C-16.57524119 0.43949175 -8.67073613 -0.09654496 0 0 Z " fill="#6FCDDD" transform="translate(316.8125,415.625)"/>
<path d="M0 0 C2.69251501 1.31455692 4.42928899 3.01422371 6.5531311 5.13157654 C7.44473434 6.0137233 8.33633759 6.89587006 9.25495911 7.80474854 C10.22232411 8.77748995 11.18929901 9.75061944 12.15591431 10.72410583 C13.15953082 11.72569873 14.16359208 12.72684616 15.16807556 13.72756958 C17.27693212 15.83200009 19.38026436 17.94176432 21.47988892 20.05540466 C24.14119321 22.73362466 26.81550116 25.39838266 29.49429607 28.05909443 C31.57532973 30.12914594 33.64899118 32.20646607 35.72068214 34.28586388 C36.70185395 35.26900742 37.6851765 36.25001031 38.67087364 37.22861671 C54.67109129 53.13907718 66.17532462 70.3637998 66.39419556 93.54832458 C66.33291941 100.7683452 65.62101117 107.19393644 63.01919556 113.98582458 C62.66728149 114.96809021 62.31536743 115.95035583 61.95278931 116.96238708 C59.22562224 124.07282267 55.65100803 129.9655531 51.01919556 135.98582458 C50.29732056 136.99644958 49.57544556 138.00707458 48.83169556 139.04832458 C37.26494631 152.44140266 20.00492355 158.98337587 2.77700806 160.40769958 C-11.51211569 161.1140124 -26.42505135 157.62305983 -37.98080444 148.98582458 C-38.88057007 148.33871521 -39.78033569 147.69160583 -40.70736694 147.02488708 C-55.58021462 135.67563417 -64.43804996 119.43767129 -66.98080444 100.98582458 C-68.30692901 79.96348916 -62.60396612 63.13232859 -48.66610718 47.06150818 C-41.42822816 38.9382715 -33.68370482 31.27622103 -25.99911499 23.57859802 C-23.50682411 21.08083616 -21.0312539 18.56712997 -18.55890751 16.04964638 C-16.18056807 13.63458512 -13.78470485 11.23717965 -11.39096069 8.83738708 C-10.06283104 7.47995895 -10.06283104 7.47995895 -8.70787048 6.09510803 C-7.47024208 4.86659622 -7.47024208 4.86659622 -6.20761108 3.61326599 C-5.12486656 2.5229155 -5.12486656 2.5229155 -4.02024841 1.41053772 C-1.98080444 -0.01417542 -1.98080444 -0.01417542 0 0 Z " fill="#F6FEFE" transform="translate(224.98080444335938,535.0141754150391)"/>
<path d="M0 0 C0.83772949 0.00966797 1.67545898 0.01933594 2.53857422 0.02929688 C22.45203982 0.413356 37.46593367 7.59851375 51.75 21.25 C52.71421875 22.10207031 53.6784375 22.95414062 54.671875 23.83203125 C56.75 26.25 56.75 26.25 56.64572144 28.11697388 C55.43844371 30.99192454 53.72336608 32.61335695 51.49658203 34.79638672 C50.59118683 35.69187225 49.68579163 36.58735779 48.75296021 37.50997925 C48.26565556 37.98492702 47.77835091 38.4598748 47.27627945 38.94921494 C45.73693242 40.45004513 44.20734967 41.96024276 42.67990112 43.47317505 C38.87534201 47.23773069 35.05511377 50.98625153 31.23443604 54.73443604 C7.19813076 78.32223893 -14.98659208 101.9503852 -21.25 136.25 C-25.19288247 134.64774798 -27.89745743 131.92538932 -30.86328125 128.97265625 C-31.39592087 128.44667343 -31.92856049 127.92069061 -32.4773407 127.37876892 C-33.60365412 126.26256657 -34.72728022 125.1436469 -35.84838867 124.0222168 C-37.5360394 122.33889276 -39.23895018 120.6721895 -40.94335938 119.00585938 C-49.011697 111.02239388 -55.76168104 102.79346259 -60.0625 92.125 C-60.44019531 91.21492187 -60.81789063 90.30484375 -61.20703125 89.3671875 C-63.66966846 82.00694596 -64.58964932 75.12368954 -64.5 67.375 C-64.49033203 66.49295898 -64.48066406 65.61091797 -64.47070312 64.70214844 C-64.16253639 47.99334822 -58.54449346 33.77045465 -47.25 21.25 C-46.74339844 20.651875 -46.23679687 20.05375 -45.71484375 19.4375 C-34.35105448 6.92895554 -16.716487 -0.20390104 0 0 Z " fill="#F6FEFE" transform="translate(129.25,468.75)"/>
<path d="M0 0 C14.19414495 12.85435119 22.49392314 28.52362445 23.56762695 47.68432617 C23.90496834 60.1213414 22.76781764 69.9929179 17.16137695 81.14135742 C16.45948242 82.55094727 16.45948242 82.55094727 15.7434082 83.98901367 C9.81683644 94.72988743 0.23005593 103.21750077 -8.40112305 111.76635742 C-9.31442383 112.67514648 -10.22772461 113.58393555 -11.16870117 114.52026367 C-13.38970275 116.72963697 -15.61302337 118.93661773 -17.83862305 121.14135742 C-18.49862305 120.81135742 -19.15862305 120.48135742 -19.83862305 120.14135742 C-20.44981657 118.01428292 -20.97482223 115.86234699 -21.46362305 113.70385742 C-28.30053563 86.00542321 -46.34416169 65.4239853 -66.1237793 45.75854492 C-67.07520786 44.80898815 -68.02641092 43.85920538 -68.97740173 42.90921021 C-71.44596381 40.44441351 -73.91751627 37.98263801 -76.38977051 35.52154541 C-78.92601792 32.99564292 -81.4593336 30.46680359 -83.99291992 27.93823242 C-88.93867153 23.00311223 -93.88759823 18.07118725 -98.83862305 13.14135742 C-97.89919649 12.03186949 -96.95781143 10.92403971 -96.015625 9.81689453 C-95.49160599 9.19979111 -94.96758698 8.58268768 -94.4276886 7.94688416 C-84.82759642 -2.96092456 -70.3488175 -12.6285132 -55.6706543 -14.67895508 C-35.42945586 -15.96322422 -16.13465288 -13.78152654 0 0 Z " fill="#F6FEFE" transform="translate(360.838623046875,483.858642578125)"/>
<path d="M0 0 C5.14829744 4.30627256 9.95752072 8.82311931 14.68359375 13.5859375 C15.38396255 14.28772125 16.08433136 14.989505 16.80592346 15.71255493 C19.01883027 17.93101136 21.22821416 20.15293815 23.4375 22.375 C24.94703314 23.88955466 26.45679657 25.40387985 27.96679688 26.91796875 C31.64719702 30.60933099 35.32471957 34.30354069 39 38 C35.89875911 41.11555982 32.77654919 44.20883741 29.64379883 47.29272461 C25.5170055 51.3551885 21.39929716 55.4267083 17.28795338 59.50479794 C14.81437688 61.95762369 12.33724298 64.40660873 9.85131836 66.84692383 C-8.88200356 85.2459315 -27.10186789 103.51284506 -27.375 131.4375 C-27.23857007 145.42311767 -23.484804 159.686928 -15 171 C-15.33 171.66 -15.66 172.32 -16 173 C-24.34502075 165.14254605 -32.63168656 157.22849304 -40.84978867 149.23826694 C-44.66827166 145.52918731 -48.50364547 141.8420313 -52.38525391 138.19897461 C-56.13422859 134.67899039 -59.82874573 131.10937089 -63.49204254 127.50037956 C-64.89495622 126.1361338 -66.31617449 124.79044391 -67.75557709 123.4647541 C-78.71423817 113.33834139 -78.71423817 113.33834139 -79.1919899 107.75712585 C-78.73791857 102.49094675 -77.01017029 97.85334904 -75 93 C-74.40338111 91.30998927 -73.80693871 89.61991617 -73.2109375 87.9296875 C-72.61872835 86.56934636 -72.00702202 85.21730692 -71.375 83.875 C-71.03436523 83.13475586 -70.69373047 82.39451172 -70.34277344 81.63183594 C-59.62491238 59.10599834 -41.32459224 42.05017798 -23.83758545 24.75854492 C-19.79369654 20.75851458 -15.75722503 16.75102401 -11.72362328 12.74062347 C-10.32280976 11.34999338 -8.91842791 9.96296072 -7.51399231 8.57598877 C-6.67188705 7.74041443 -5.8297818 6.90484009 -4.9621582 6.04394531 C-3.8472979 4.94146454 -3.8472979 4.94146454 -2.70991516 3.81671143 C-0.93052893 2.10053053 -0.93052893 2.10053053 0 0 Z " fill="#6FCDDD" transform="translate(186,496)"/>
<path d="M0 0 C8.26432395 5.30164178 13.38924791 14.68502184 15.5703125 24.109375 C17.61492419 37.86403547 15.14819022 50.63750549 7.375 62.1875 C2.54683246 68.3268704 -4.55816759 71.97457517 -12 74 C-21.5951528 74.95349322 -29.88679755 74.80538338 -38 69 C-39.98 67.35 -41.96 65.7 -44 64 C-44 79.18 -44 94.36 -44 110 C-50.6 110 -57.2 110 -64 110 C-64 72.38 -64 34.76 -64 -4 C-57.4 -4 -50.8 -4 -44 -4 C-43.67 -1.03 -43.34 1.94 -43 5 C-42.030625 4.0925 -41.06125 3.185 -40.0625 2.25 C-28.07954353 -7.80329549 -13.45423743 -7.50011062 0 0 Z " fill="#15365E" transform="translate(808,581)"/>
<path d="M0 0 C2.33573338 1.87473337 4.06651513 3.69055974 6 6 C6.33 2.7 6.66 -0.6 7 -4 C13.27 -4 19.54 -4 26 -4 C26 21.41 26 46.82 26 73 C19.73 73 13.46 73 7 73 C6.67 69.7 6.34 66.4 6 63 C5.34 63.721875 4.68 64.44375 4 65.1875 C-3.41669645 72.58312629 -10.74539123 74.36294831 -21.05078125 74.45532227 C-29.61550734 74.24680604 -36.60398819 70.48105653 -42.875 64.8125 C-51.94810079 54.74113629 -54.49796075 43.3757851 -54.25 30.171875 C-53.41703629 19.60364792 -48.67948054 9.82916112 -40.96484375 2.5703125 C-28.76857831 -7.17700103 -13.5181926 -7.92657657 0 0 Z " fill="#13345C" transform="translate(979,581)"/>
<path d="M0 0 C9.15701188 9.15701188 12.59858699 19.37702893 12.63037109 32.00976562 C12.40321412 42.70361706 8.86707365 51.64942791 1.5625 59.5 C-8.04105562 68.59619796 -19.7485685 70.86921093 -32.515625 70.55859375 C-42.03925163 70.04855063 -50.09291425 66.03269114 -56.75 59.25 C-65.49546782 48.1565272 -68.0330845 37.24728545 -66.75 23.25 C-64.49860845 11.88583314 -58.49819743 3.51207824 -49.18359375 -3.2421875 C-33.19069401 -13.15111094 -15.0823907 -9.59788499 0 0 Z " fill="#14355D" transform="translate(641.75,584.75)"/>
<path d="M0 0 C6.27 0 12.54 0 19 0 C19 13.2 19 26.4 19 40 C32.53 40 46.06 40 60 40 C60 26.8 60 13.6 60 0 C66.6 0 73.2 0 80 0 C80 32.01 80 64.02 80 97 C73.4 97 66.8 97 60 97 C60 83.47 60 69.94 60 56 C46.47 56 32.94 56 19 56 C19 69.53 19 83.06 19 97 C12.73 97 6.46 97 0 97 C0 64.99 0 32.98 0 0 Z " fill="#14355D" transform="translate(481,557)"/>
<path d="M0 0 C6.92025121 5.37230028 10.43295298 12.58792144 13.15625 20.7578125 C13.15625 26.3678125 13.15625 31.9778125 13.15625 37.7578125 C-5.65375 37.7578125 -24.46375 37.7578125 -43.84375 37.7578125 C-40.272047 47.62732682 -40.272047 47.62732682 -33.0546875 53.859375 C-28.54932001 55.69017804 -23.60581008 55.28055537 -18.84375 54.7578125 C-15.39619868 53.06427852 -13.54776824 51.86392634 -11.49682617 48.64160156 C-9.84375 46.7578125 -9.84375 46.7578125 -7.57543945 46.30371094 C-6.71136475 46.3246582 -5.84729004 46.34560547 -4.95703125 46.3671875 C-4.01923828 46.38007813 -3.08144531 46.39296875 -2.11523438 46.40625 C-1.13876953 46.43976563 -0.16230469 46.47328125 0.84375 46.5078125 C1.83181641 46.52585937 2.81988281 46.54390625 3.83789062 46.5625 C6.27831842 46.60965803 8.71679769 46.67545208 11.15625 46.7578125 C7.97066956 57.03720863 2.6072818 63.54491155 -6.84375 68.7578125 C-15.91101758 73.14318632 -27.56840491 73.24578092 -37.25390625 70.94921875 C-48.48695331 66.76037927 -55.72125482 59.36830513 -60.78515625 48.65234375 C-64.57874962 38.27945562 -64.49513537 24.28273124 -60.10546875 14.1171875 C-54.84059724 4.27204078 -47.44812178 -2.58873786 -36.84375 -6.2421875 C-24.10161589 -9.41727666 -10.828653 -7.29557554 0 0 Z " fill="#14345D" transform="translate(942.84375,447.2421875)"/>
<path d="M0 0 C1.97689118 1.67303568 3.77690613 3.39660386 5.546875 5.28515625 C6.289375 6.06890625 7.031875 6.85265625 7.796875 7.66015625 C14.48136549 17.68689198 14.546875 25.89953648 14.546875 38.28515625 C-4.263125 38.28515625 -23.073125 38.28515625 -42.453125 38.28515625 C-38.88850069 48.18268479 -38.88850069 48.18268479 -31.59765625 54.390625 C-26.64768249 56.45536815 -20.54184772 55.98451413 -15.578125 54.09765625 C-12.32438187 52.5527931 -12.32438187 52.5527931 -10.9296875 49.69140625 C-8.04897477 46.89248032 -7.33668401 46.91553832 -3.46875 46.796875 C-1.54626773 46.83002125 0.37590495 46.88952506 2.296875 46.97265625 C3.28042969 46.99521484 4.26398438 47.01777344 5.27734375 47.04101562 C7.7020697 47.0998682 10.12369483 47.18202194 12.546875 47.28515625 C9.40473047 56.66171453 3.57249301 64.6802491 -5.453125 69.28515625 C-15.57986331 73.7534088 -28.85943299 74.07496995 -39.28515625 70.3203125 C-48.82183838 65.76676157 -56.76892964 57.20871471 -60.453125 47.28515625 C-63.56160834 35.80449112 -62.73384777 21.1093662 -57.046875 10.71484375 C-51.66549829 2.21125319 -44.91826645 -3.1047315 -35.140625 -5.65234375 C-22.48201811 -8.01191995 -10.89828157 -7.61838473 0 0 Z " fill="#14355D" transform="translate(687.453125,446.71484375)"/>
<path d="M0 0 C6.87918829 4.14673626 10.24520297 10.61788509 13 18 C13.72986544 22.50612576 13.70723172 26.86665593 13.5859375 31.421875 C13.57744781 32.64787415 13.56895813 33.87387329 13.56021118 35.13702393 C13.52693104 39.00895355 13.4516926 42.87871206 13.375 46.75 C13.34486792 49.39319885 13.31749786 52.03643072 13.29296875 54.6796875 C13.22722186 61.12061361 13.12387174 67.55994021 13 74 C6.73 74 0.46 74 -6 74 C-6.01458252 72.59306885 -6.02916504 71.1861377 -6.04418945 69.73657227 C-6.10242818 64.48632161 -6.17965923 59.23648839 -6.26245117 53.98657227 C-6.29558052 51.72003994 -6.32364928 49.45342749 -6.34643555 47.18676758 C-6.38020235 43.91713512 -6.43252972 40.64822902 -6.48828125 37.37890625 C-6.49467117 36.37541641 -6.5010611 35.37192657 -6.50764465 34.33802795 C-6.63007164 28.39846615 -6.93695998 22.25158118 -10 17 C-16.18012167 13.19475122 -22.96530157 13.38565364 -30 14 C-35.14087535 16.30453033 -36.99375167 18.82064355 -39 24 C-39.46310816 27.83921652 -39.48848558 31.65948103 -39.51171875 35.5234375 C-39.52966995 36.62475006 -39.54762115 37.72606262 -39.56611633 38.86074829 C-39.62013758 42.36546035 -39.65408964 45.87003683 -39.6875 49.375 C-39.7206802 51.75652925 -39.75517051 54.13804062 -39.79101562 56.51953125 C-39.87585978 62.34625624 -39.94271062 68.17294157 -40 74 C-46.6 74 -53.2 74 -60 74 C-60 48.59 -60 23.18 -60 -3 C-53.4 -3 -46.8 -3 -40 -3 C-39.67 -0.36 -39.34 2.28 -39 5 C-37.7934375 3.88625 -37.7934375 3.88625 -36.5625 2.75 C-25.8930521 -5.93903993 -12.00895061 -6.85609747 0 0 Z " fill="#15365E" transform="translate(853,444)"/>
<path d="M0 0 C4.44762325 3.56746202 8.41335062 7.86402052 9.85546875 13.48828125 C9.85546875 15.46828125 9.85546875 17.44828125 9.85546875 19.48828125 C3.91546875 19.48828125 -2.02453125 19.48828125 -8.14453125 19.48828125 C-9.13453125 17.50828125 -10.12453125 15.52828125 -11.14453125 13.48828125 C-14.38789922 11.01476766 -17.72618921 11.18936774 -21.70703125 11.17578125 C-23.41052734 11.15064453 -23.41052734 11.15064453 -25.1484375 11.125 C-28.11034401 11.24820701 -28.11034401 11.24820701 -30.03125 12.79296875 C-31.43532171 14.63129877 -31.43532171 14.63129877 -31.39453125 17.92578125 C-30.53681224 21.44730073 -30.53681224 21.44730073 -28.44921875 22.7265625 C-23.49794322 25.02473519 -18.24541304 26.33983602 -12.98046875 27.71875 C-3.50247374 30.29060264 3.83646991 33.04318604 9.79296875 41.11328125 C11.61502332 46.900984 12.15427923 53.10804373 9.94140625 58.8671875 C5.98857351 65.58700315 0.35502907 70.05824744 -6.90625 72.7578125 C-16.22715865 74.86035764 -28.21920347 75.26054868 -36.93359375 70.94921875 C-43.74071933 66.45122411 -49.96602626 61.57987121 -52.14453125 53.48828125 C-52.17824304 51.82195556 -52.18420255 50.15447571 -52.14453125 48.48828125 C-49.06191669 48.31364155 -45.98057292 48.20734058 -42.89453125 48.11328125 C-42.02183594 48.06300781 -41.14914062 48.01273438 -40.25 47.9609375 C-37.74910739 47.90366515 -35.58343147 47.92328069 -33.14453125 48.48828125 C-30.66015625 51.38671875 -30.66015625 51.38671875 -29.14453125 54.48828125 C-26.08241258 57.55039992 -22.9190772 57.65068237 -18.70703125 57.73828125 C-14.74705446 57.66640048 -12.06196738 57.40571738 -9.14453125 54.48828125 C-8.31119792 50.98828125 -8.31119792 50.98828125 -9.14453125 47.48828125 C-12.42475056 45.10107538 -15.80163242 43.78072002 -19.64453125 42.55078125 C-20.69125 42.20917969 -21.73796875 41.86757813 -22.81640625 41.515625 C-25.04563541 40.8274944 -27.28584382 40.17402583 -29.53515625 39.5546875 C-37.17940497 37.41252013 -43.95975554 35.29720184 -48.515625 28.41796875 C-51.11403364 23.2571156 -52.26049586 18.20636542 -51.14453125 12.48828125 C-48.67329205 5.62119719 -44.50841992 0.9839384 -38.14453125 -2.51171875 C-26.30439957 -7.86410704 -10.85678996 -7.34621117 0 0 Z " fill="#15355D" transform="translate(717.14453125,581.51171875)"/>
<path d="M0 0 C5.06711299 4.24210136 9.81223371 8.67717089 14.46484375 13.3671875 C15.14301651 14.04677521 15.82118927 14.72636292 16.51991272 15.42654419 C18.66149141 17.57367002 20.79954529 19.72426627 22.9375 21.875 C24.39885589 23.34137773 25.86044226 24.8075258 27.32226562 26.2734375 C30.88417935 29.84631 34.44293865 33.42229684 38 37 C33.75789864 42.06711299 29.32282911 46.81223371 24.6328125 51.46484375 C23.95322479 52.14301651 23.27363708 52.82118927 22.57345581 53.51991272 C20.42632998 55.66149141 18.27573373 57.79954529 16.125 59.9375 C14.65862227 61.39885589 13.1924742 62.86044226 11.7265625 64.32226562 C8.15369 67.88417935 4.57770316 71.44293865 1 75 C-4.06711299 70.75789864 -8.81223371 66.32282911 -13.46484375 61.6328125 C-14.14301651 60.95322479 -14.82118927 60.27363708 -15.51991272 59.57345581 C-17.66149141 57.42632998 -19.79954529 55.27573373 -21.9375 53.125 C-23.39885589 51.65862227 -24.86044226 50.1924742 -26.32226562 48.7265625 C-29.88417935 45.15369 -33.44293865 41.57770316 -37 38 C-32.75789864 32.93288701 -28.32282911 28.18776629 -23.6328125 23.53515625 C-22.95322479 22.85698349 -22.27363708 22.17881073 -21.57345581 21.48008728 C-19.42632998 19.33850859 -17.27573373 17.20045471 -15.125 15.0625 C-13.65862227 13.60114411 -12.1924742 12.13955774 -10.7265625 10.67773438 C-7.15369 7.11582065 -3.57770316 3.55706135 0 0 Z " fill="#3FA1BA" transform="translate(224,459)"/>
<path d="M0 0 C0 5.28 0 10.56 0 16 C-3.41796875 16.63476562 -3.41796875 16.63476562 -6.8359375 17.26953125 C-9.35820641 17.87544942 -9.35820641 17.87544942 -11 21 C-11.45394552 23.27912938 -11.45394552 23.27912938 -11.625 25.6875 C-11.74875 27.110625 -11.8725 28.53375 -12 30 C-7.71 30 -3.42 30 1 30 C1 35.28 1 40.56 1 46 C-3.29 46 -7.58 46 -12 46 C-12 66.13 -12 86.26 -12 107 C-18.6 107 -25.2 107 -32 107 C-32 86.87 -32 66.74 -32 46 C-34.97 46 -37.94 46 -41 46 C-41 40.72 -41 35.44 -41 30 C-38.03 30 -35.06 30 -32 30 C-32.08701172 28.87464844 -32.08701172 28.87464844 -32.17578125 27.7265625 C-32.54734618 19.2973466 -31.2465258 12.85317234 -25.578125 6.375 C-17.62799751 -0.80576031 -10.24697808 -0.2927708 0 0 Z " fill="#15355D" transform="translate(617,411)"/>
<path d="M0 0 C6.27 0 12.54 0 19 0 C19 6.27 19 12.54 19 19 C24.61 19 30.22 19 36 19 C36 24.28 36 29.56 36 35 C30.39 35 24.78 35 19 35 C19.04413925 40.62394866 19.11395789 46.24677316 19.20751953 51.87011719 C19.23573286 53.78278656 19.25694561 55.6955726 19.27099609 57.60839844 C19.29242081 60.35933173 19.3390674 63.10886175 19.390625 65.859375 C19.39185364 66.71368103 19.39308228 67.56798706 19.39434814 68.44818115 C19.5090341 73.32976766 19.5090341 73.32976766 21.84960938 77.53320312 C24.6971921 79.47555973 26.82782477 79.60120977 30.25 79.75 C32.1475 79.8325 34.045 79.915 36 80 C36 85.28 36 90.56 36 96 C13.47597548 96.98405932 13.47597548 96.98405932 6 91 C1.60301023 86.60301023 -0.09704625 82.3751122 -0.22705078 76.2097168 C-0.22673569 74.28952166 -0.21552925 72.36930748 -0.1953125 70.44921875 C-0.1924826 69.43527542 -0.18965271 68.42133209 -0.18673706 67.37666321 C-0.17556625 64.14682073 -0.15046711 60.91725829 -0.125 57.6875 C-0.1149662 55.49414464 -0.10584105 53.30078492 -0.09765625 51.10742188 C-0.07563701 45.7381738 -0.04112825 40.36913434 0 35 C-3.3 35 -6.6 35 -10 35 C-10 29.72 -10 24.44 -10 19 C-6.7 19 -3.4 19 0 19 C0 12.73 0 6.46 0 0 Z " fill="#13345C" transform="translate(880,558)"/>
<path d="M0 0 C6.27 0 12.54 0 19 0 C19 27.06 19 54.12 19 82 C29.56 82 40.12 82 51 82 C51 86.95 51 91.9 51 97 C34.17 97 17.34 97 0 97 C0 64.99 0 32.98 0 0 Z " fill="#12325B" transform="translate(481,421)"/>
<path d="M0 0 C6.6 0 13.2 0 20 0 C20 33.99 20 67.98 20 103 C13.4 103 6.8 103 0 103 C0 69.01 0 35.02 0 0 Z " fill="#193960" transform="translate(1024,551)"/>
<path d="M0 0 C6.6 0 13.2 0 20 0 C20 33.99 20 67.98 20 103 C13.4 103 6.8 103 0 103 C0 69.01 0 35.02 0 0 Z " fill="#193960" transform="translate(716,415)"/>
<path d="M0 0 C6.6 0 13.2 0 20 0 C20 25.41 20 50.82 20 77 C13.4 77 6.8 77 0 77 C0 51.59 0 26.18 0 0 Z " fill="#183860" transform="translate(838,577)"/>
<path d="M0 0 C6.6 0 13.2 0 20 0 C20 25.41 20 50.82 20 77 C13.4 77 6.8 77 0 77 C0 51.59 0 26.18 0 0 Z " fill="#183960" transform="translate(544,441)"/>
<path d="M0 0 C5.58488497 3.31901735 9.56681274 7.29492471 11.98828125 13.40625 C13.50392814 21.53562878 13.07971298 27.94904013 8.86328125 35.21875 C5.78477425 39.26478777 2.36539721 42.12360613 -2.32421875 44.09375 C-9.42616778 45.0290756 -14.60618917 44.43945248 -20.32421875 40.09375 C-26.02024817 34.26826537 -28.45913046 29.17483961 -28.76171875 21.15625 C-28.55111872 14.40020111 -27.09858524 9.96301433 -22.3828125 5.0859375 C-15.95876965 -0.7584035 -8.56160261 -3.33830556 0 0 Z " fill="#F3FCFC" transform="translate(973.32421875,593.90625)"/>
<path d="M0 0 C6.27 0 12.54 0 19 0 C19 25.41 19 50.82 19 77 C12.73 77 6.46 77 0 77 C0 51.59 0 26.18 0 0 Z " fill="#11325B" transform="translate(755,441)"/>
<path d="M0 0 C5.1706876 2.76643346 8.92955778 5.93300119 11.46875 11.2734375 C13.44881621 18.12904361 13.58928489 25.96912685 10.55859375 32.52734375 C6.97344473 38.39395124 2.86292846 41.90386245 -3.75390625 43.96484375 C-10.17820517 44.92009081 -14.75276406 44.18692911 -20.06640625 40.39453125 C-24.59640705 36.55661391 -27.53380084 32.47175862 -28.0546875 26.5390625 C-28.08331924 17.04286877 -27.73174817 10.13651461 -20.75390625 2.96484375 C-14.35214527 -1.86913903 -7.61632693 -2.86287466 0 0 Z " fill="#F4FCFC" transform="translate(791.75390625,594.03515625)"/>
<path d="M0 0 C4.34439094 3.10063385 7.65219163 6.82196357 9.625 11.8125 C10.38739017 20.00376182 11.1385223 29.11144982 5.625 35.8125 C1.78579526 39.88310887 -2.41701096 42.39245671 -7.98828125 43.18359375 C-14.69035907 43.34847844 -19.39446208 42.51112068 -24.375 37.8125 C-30.14077659 30.30358165 -30.0900377 21.92412331 -29.375 12.8125 C-27.76951111 6.6613498 -23.69518494 2.18428388 -18.375 -1.1875 C-12.24841068 -3.21724402 -5.60703809 -3.34952275 0 0 Z " fill="#F4FDFD" transform="translate(624.375,595.1875)"/>
<path d="M0 0 C2.97 0 5.94 0 9 0 C12.63 8.58 16.26 17.16 20 26 C23.57763814 17.81862478 23.57763814 17.81862478 27.15014648 9.63500977 C27.59430908 8.62237061 28.03847168 7.60973145 28.49609375 6.56640625 C28.95169678 5.52427979 29.4072998 4.48215332 29.87670898 3.40844727 C31 1 31 1 32 0 C34.64 0 37.28 0 40 0 C40 12.21 40 24.42 40 37 C37.69 37 35.38 37 33 37 C32.505 26.605 32.505 26.605 32 16 C31.43410156 17.43214844 30.86820313 18.86429688 30.28515625 20.33984375 C29.54440649 22.20578303 28.80351369 24.07166552 28.0625 25.9375 C27.68931641 26.88302734 27.31613281 27.82855469 26.93164062 28.80273438 C26.57392578 29.70185547 26.21621094 30.60097656 25.84765625 31.52734375 C25.51773682 32.35999756 25.18781738 33.19265137 24.84790039 34.05053711 C24 36 24 36 23 37 C21.02 37 19.04 37 17 37 C14.03 29.74 11.06 22.48 8 15 C7.67 22.26 7.34 29.52 7 37 C4.69 37 2.38 37 0 37 C0 24.79 0 12.58 0 0 Z " fill="#14355D" transform="translate(568,709)"/>
<path d="M0 0 C3.196875 -0.061875 6.39375 -0.12375 9.6875 -0.1875 C11.18543091 -0.22846802 11.18543091 -0.22846802 12.71362305 -0.27026367 C17.60343329 -0.31608255 21.0952382 -0.30402922 25 3 C27.81677002 7.22515503 27.80077538 11.03677837 27 16 C24.625 19 24.625 19 22 21 C21.34 21.66 20.68 22.32 20 23 C20.5775 23.92683594 21.155 24.85367188 21.75 25.80859375 C22.50011664 27.01815684 23.25011031 28.22779619 24 29.4375 C24.3815625 30.04916016 24.763125 30.66082031 25.15625 31.29101562 C28 35.88671875 28 35.88671875 28 37 C24.749888 37.7959458 22.21368755 38.02715963 19 37 C15.8895563 33.24718205 12 28.05025381 12 23 C10.68 23 9.36 23 8 23 C8 27.62 8 32.24 8 37 C5.36 37 2.72 37 0 37 C0 24.79 0 12.58 0 0 Z " fill="#1A3A61" transform="translate(511,709)"/>
<path d="M0 0 C4.764375 -0.1546875 4.764375 -0.1546875 9.625 -0.3125 C11.1092749 -0.38078003 11.1092749 -0.38078003 12.62353516 -0.45043945 C17.02797962 -0.51943975 20.08156249 -0.45735553 23.5859375 2.39453125 C26.94359451 6.01841025 27.29059203 8.01164968 27.21875 12.96875 C26.89955562 15.93269781 25.84691316 17.69135856 24 20 C22.68323213 21.02171433 21.35186818 22.02520249 20 23 C20.5053125 23.84304688 21.010625 24.68609375 21.53125 25.5546875 C22.1809375 26.65039062 22.830625 27.74609375 23.5 28.875 C24.1496875 29.96554687 24.799375 31.05609375 25.46875 32.1796875 C27 35 27 35 27 37 C24.36 37 21.72 37 19 37 C18.46890625 36.00097656 17.9378125 35.00195312 17.390625 33.97265625 C16.67777555 32.66889212 15.96419565 31.36552718 15.25 30.0625 C14.90195312 29.40314453 14.55390625 28.74378906 14.1953125 28.06445312 C13.22821628 26.31830716 12.11944774 24.65261537 11 23 C9.68 22.67 8.36 22.34 7 22 C7 26.95 7 31.9 7 37 C4.69 37 2.38 37 0 37 C0 24.79 0 12.58 0 0 Z " fill="#14345D" transform="translate(662,709)"/>
<path d="M0 0 C20.78571429 0 20.78571429 0 25.875 4.75 C27.50340357 8.00680714 27.37833086 10.40585687 27 14 C25.26926896 17.72107173 22.90279122 20.1511863 20 23 C20.5053125 23.84304688 21.010625 24.68609375 21.53125 25.5546875 C22.1809375 26.65039062 22.830625 27.74609375 23.5 28.875 C24.1496875 29.96554687 24.799375 31.05609375 25.46875 32.1796875 C27 35 27 35 27 37 C21.86146431 37.6967506 21.86146431 37.6967506 19 37 C16.73407455 34.63630619 15.43134965 31.92233887 14 29 C13.1028125 27.576875 13.1028125 27.576875 12.1875 26.125 C11 24 11 24 11 22 C9.68 22 8.36 22 7 22 C7 26.95 7 31.9 7 37 C4.69 37 2.38 37 0 37 C0 24.79 0 12.58 0 0 Z " fill="#14355D" transform="translate(842,709)"/>
<path d="M0 0 C8 0 8 0 10.28515625 2.11132812 C10.87167969 3.07490234 11.45820312 4.03847656 12.0625 5.03125 C12.71347656 6.06894531 13.36445312 7.10664062 14.03515625 8.17578125 C15.00775391 9.82126953 15.00775391 9.82126953 16 11.5 C17.01900391 13.14548828 17.01900391 13.14548828 18.05859375 14.82421875 C19.73144655 17.53376907 21.36916509 20.26495395 23 23 C23.33 15.41 23.66 7.82 24 0 C26.31 0 28.62 0 31 0 C31 12.21 31 24.42 31 37 C24 37 24 37 21.84765625 35.05078125 C21.25855469 34.14714844 20.66945313 33.24351562 20.0625 32.3125 C19.40378906 31.3225 18.74507812 30.3325 18.06640625 29.3125 C17.38449219 28.219375 16.70257812 27.12625 16 26 C15.43901611 25.11054687 15.43901611 25.11054687 14.86669922 24.203125 C12.53007464 20.49463733 10.26200311 16.75654089 8 13 C7.67 20.92 7.34 28.84 7 37 C4.69 37 2.38 37 0 37 C0 24.79 0 12.58 0 0 Z " fill="#14355D" transform="translate(1021,709)"/>
<path d="M0 0 C1.23556641 0.01740234 1.23556641 0.01740234 2.49609375 0.03515625 C3.32238281 0.04417969 4.14867187 0.05320312 5 0.0625 C5.63808594 0.07410156 6.27617188 0.08570313 6.93359375 0.09765625 C10.5394689 9.21902682 14.0896686 18.35373928 17.37109375 27.59765625 C17.62971191 28.32073975 17.88833008 29.04382324 18.15478516 29.78881836 C19.93359375 34.85153439 19.93359375 34.85153439 19.93359375 37.09765625 C17.29359375 37.09765625 14.65359375 37.09765625 11.93359375 37.09765625 C10.94359375 33.63265625 10.94359375 33.63265625 9.93359375 30.09765625 C4.98359375 30.42765625 0.03359375 30.75765625 -5.06640625 31.09765625 C-5.72640625 33.07765625 -6.38640625 35.05765625 -7.06640625 37.09765625 C-9.70640625 37.09765625 -12.34640625 37.09765625 -15.06640625 37.09765625 C-14.43924178 32.46168836 -13.21384899 28.37006589 -11.59765625 23.984375 C-11.35728638 23.32935501 -11.1169165 22.67433502 -10.8692627 21.99946594 C-10.36408921 20.62623821 -9.85635962 19.25394834 -9.34619141 17.88256836 C-8.5630699 15.77618237 -7.78875471 13.66671187 -7.015625 11.55664062 C-2.80259542 0.1324478 -2.80259542 0.1324478 0 0 Z " fill="#193960" transform="translate(633.06640625,708.90234375)"/>
<path d="M0 0 C3.3 0 6.6 0 10 0 C11.71500513 4.78506196 13.4238318 9.57226765 15.12695312 14.36157227 C15.70728688 15.99075866 16.28930881 17.61934472 16.87304688 19.24731445 C17.71147369 21.58649676 18.54381937 23.92776593 19.375 26.26953125 C19.63748535 26.99775589 19.8999707 27.72598053 20.17041016 28.47627258 C21.21999152 31.44909653 22 33.82225618 22 37 C19.69 37 17.38 37 15 37 C13.5393715 34.35261084 13 33.10551666 13 30 C7.72 30 2.44 30 -3 30 C-3.66 32.31 -4.32 34.62 -5 37 C-7.64 37 -10.28 37 -13 37 C-11.5884568 32.7066314 -10.16982654 28.4156357 -8.75 24.125 C-8.35425781 22.92101562 -7.95851563 21.71703125 -7.55078125 20.4765625 C-5.25292036 13.54530998 -2.79139449 6.7480041 0 0 Z " fill="#183860" transform="translate(810,709)"/>
<path d="M0 0 C18 0 18 0 24 3 C26.79611547 6.06670728 27.23639043 8.47376782 27.0625 12.5 C26.55109365 15.98686147 25.76293399 17.7231635 23.0625 20 C17.45464215 23.66227452 13.69570093 23.07785699 7 23 C7 27.62 7 32.24 7 37 C4.69 37 2.38 37 0 37 C0 24.79 0 12.58 0 0 Z " fill="#16365E" transform="translate(475,709)"/>
<path d="M0 0 C3.37629106 1.9004273 5.63174811 3.97190317 7.6875 7.3125 C7.6875 8.3025 7.6875 9.2925 7.6875 10.3125 C5.0475 10.3125 2.4075 10.3125 -0.3125 10.3125 C-0.6425 9.3225 -0.9725 8.3325 -1.3125 7.3125 C-4.81355791 5.83128319 -8.58462345 5.98549328 -12.3125 6.3125 C-15.06579021 8.10812405 -16.83877461 9.36504922 -18.3125 12.3125 C-18.80394917 17.31561365 -18.92892675 21.81546361 -17 26.5 C-13.29546675 28.99840614 -10.25903051 28.87295247 -5.87109375 28.87890625 C-2.62047319 28.15930323 -2.22318084 26.91657308 -0.3125 24.3125 C1.94921875 23.921875 1.94921875 23.921875 4.375 24.0625 C5.18324219 24.09859375 5.99148438 24.1346875 6.82421875 24.171875 C7.74654297 24.24148438 7.74654297 24.24148438 8.6875 24.3125 C7.11329339 29.32133921 4.349223 32.67800912 -0.14453125 35.4375 C-5.29539119 37.51640564 -12.01184053 37.1098878 -17.1875 35.1875 C-21.9710507 32.31736958 -25.17351579 28.51923788 -27.3125 23.3125 C-28.24549959 16.43776615 -27.97927271 10.62739396 -23.8125 4.93359375 C-17.43293992 -1.9609829 -8.51723022 -3.95556759 0 0 Z " fill="#1C3C63" transform="translate(1108.3125,709.6875)"/>
<path d="M0 0 C3.37629106 1.9004273 5.63174811 3.97190317 7.6875 7.3125 C7.6875 8.3025 7.6875 9.2925 7.6875 10.3125 C5.0475 10.3125 2.4075 10.3125 -0.3125 10.3125 C-0.6425 9.3225 -0.9725 8.3325 -1.3125 7.3125 C-4.81355791 5.83128319 -8.58462345 5.98549328 -12.3125 6.3125 C-15.06579021 8.10812405 -16.83877461 9.36504922 -18.3125 12.3125 C-18.80394917 17.31561365 -18.92892675 21.81546361 -17 26.5 C-13.29546675 28.99840614 -10.25903051 28.87295247 -5.87109375 28.87890625 C-2.62047319 28.15930323 -2.22318084 26.91657308 -0.3125 24.3125 C1.94921875 23.921875 1.94921875 23.921875 4.375 24.0625 C5.18324219 24.09859375 5.99148438 24.1346875 6.82421875 24.171875 C7.74654297 24.24148438 7.74654297 24.24148438 8.6875 24.3125 C7.11329339 29.32133921 4.349223 32.67800912 -0.14453125 35.4375 C-5.29539119 37.51640564 -12.01184053 37.1098878 -17.1875 35.1875 C-21.9710507 32.31736958 -25.17351579 28.51923788 -27.3125 23.3125 C-28.24549959 16.43776615 -27.97927271 10.62739396 -23.8125 4.93359375 C-17.43293992 -1.9609829 -8.51723022 -3.95556759 0 0 Z " fill="#1C3C63" transform="translate(954.3125,709.6875)"/>
<path d="M0 0 C3.37629106 1.9004273 5.63174811 3.97190317 7.6875 7.3125 C7.6875 8.3025 7.6875 9.2925 7.6875 10.3125 C5.0475 10.3125 2.4075 10.3125 -0.3125 10.3125 C-0.6425 9.3225 -0.9725 8.3325 -1.3125 7.3125 C-4.81355791 5.83128319 -8.58462345 5.98549328 -12.3125 6.3125 C-15.06579021 8.10812405 -16.83877461 9.36504922 -18.3125 12.3125 C-18.80394917 17.31561365 -18.92892675 21.81546361 -17 26.5 C-13.29546675 28.99840614 -10.25903051 28.87295247 -5.87109375 28.87890625 C-2.62047319 28.15930323 -2.22318084 26.91657308 -0.3125 24.3125 C1.94921875 23.921875 1.94921875 23.921875 4.375 24.0625 C5.18324219 24.09859375 5.99148438 24.1346875 6.82421875 24.171875 C7.74654297 24.24148438 7.74654297 24.24148438 8.6875 24.3125 C7.11329339 29.32133921 4.349223 32.67800912 -0.14453125 35.4375 C-5.29539119 37.51640564 -12.01184053 37.1098878 -17.1875 35.1875 C-21.9710507 32.31736958 -25.17351579 28.51923788 -27.3125 23.3125 C-28.24549959 16.43776615 -27.97927271 10.62739396 -23.8125 4.93359375 C-17.43293992 -1.9609829 -8.51723022 -3.95556759 0 0 Z " fill="#1C3C63" transform="translate(780.3125,709.6875)"/>
<path d="M0 0 C6.93 0 13.86 0 21 0 C21 1.98 21 3.96 21 6 C16.38 6 11.76 6 7 6 C7 8.97 7 11.94 7 15 C11.29 15 15.58 15 20 15 C20 16.98 20 18.96 20 21 C15.71 21 11.42 21 7 21 C7 24.3 7 27.6 7 31 C11.62 31 16.24 31 21 31 C21 32.98 21 34.96 21 37 C14.07 37 7.14 37 0 37 C0 24.79 0 12.58 0 0 Z " fill="#14345D" transform="translate(880,709)"/>
<path d="M0 0 C4.39021437 2.53565652 7.29529252 5.49292879 9.58984375 10.08203125 C9.58984375 11.73203125 9.58984375 13.38203125 9.58984375 15.08203125 C-2.29015625 15.08203125 -14.17015625 15.08203125 -26.41015625 15.08203125 C-25.25789142 8.16844227 -23.87964777 5.03704537 -18.41015625 0.70703125 C-12.79398222 -2.15540583 -5.84396161 -2.22582006 0 0 Z " fill="#F2FBFB" transform="translate(926.41015625,456.91796875)"/>
<path d="M0 0 C3.66182702 2.13543917 5.70828896 4.51206033 7.5625 8.375 C7.5625 10.355 7.5625 12.335 7.5625 14.375 C-3.9875 14.375 -15.5375 14.375 -27.4375 14.375 C-26.44573496 7.43264474 -26.15066237 5.98342542 -21.4375 1.375 C-15.21220139 -3.07164186 -6.88715472 -3.07669155 0 0 Z " fill="#F3FBFC" transform="translate(673.4375,457.625)"/>
<path d="M0 0 C2.64 0 5.28 0 8 0 C10.31 4.95 12.62 9.9 15 15 C16.98841412 12.01737882 18.53671732 9.02359325 20.125 5.8125 C20.66382813 4.72582031 21.20265625 3.63914062 21.7578125 2.51953125 C22.16773438 1.68808594 22.57765625 0.85664062 23 0 C25.64 0 28.28 0 31 0 C29.74921068 4.37434518 27.94639636 7.97078396 25.67358398 11.86352539 C20.72902881 20.40980277 18.60266709 26.97131736 19 37 C16.69 37 14.38 37 12 37 C12.04382813 36.20980469 12.08765625 35.41960938 12.1328125 34.60546875 C12.10702186 23.32206564 7.66739987 15.49332328 2.015625 5.97607422 C0.99433145 3.98897085 0.44885364 2.18145306 0 0 Z " fill="#17375F" transform="translate(698,709)"/>
<path d="M0 0 C3.77062132 2.07014504 7.005306 4.12142833 9 8 C9.55202481 12.25847709 9.27069422 14.46863726 7.3125 18.3125 C4.38905692 21.71001493 2.47658978 22.67784198 -1.921875 23.25 C-5.74262625 23.47981962 -7.56040531 23.27713578 -10.875 21.1875 C-13.8264403 18.14925263 -14.93258304 16.50562722 -15.5 12.25 C-15.40955415 7.80170882 -13.54392609 5.5327989 -10.60546875 2.34765625 C-7.37874722 -0.36090562 -4.03181343 -0.39527583 0 0 Z " fill="#183860" transform="translate(851,545)"/>
<path d="M0 0 C3.21377078 2.07109672 4.39538585 3.26971462 5.8125 6.8125 C6.51531892 11.09015095 6.34173756 13.91083601 4.125 17.6875 C0.59466334 20.93159315 -1.93231386 21.70042981 -6.6875 22.125 C-10.50438865 21.78420637 -12.22323142 21.20038303 -15.1875 18.8125 C-17.51130221 15.92778002 -18.15198964 14.05663376 -18.6875 10.375 C-18.01611386 5.59137378 -16.62184812 4.16879476 -13.1875 0.8125 C-8.93668442 -2.20420783 -4.73752346 -1.76495972 0 0 Z " fill="#17375F" transform="translate(560.1875,410.1875)"/>
<path d="M0 0 C3.70390021 2.02666238 5.65363011 3.48044516 8 7 C8.68343706 10.77688904 8.85107095 14.47186889 6.94921875 17.88671875 C4.63717344 20.70345831 2.71976865 22.75923239 -0.953125 23.2734375 C-5.20719718 23.46154273 -8.09982354 23.43570087 -11.5 20.6875 C-14.9317256 16.99839498 -15.40146446 14.00433329 -15.35546875 9 C-14.75030799 5.59513944 -12.6162301 4.06864706 -10 2 C-6.24543433 -0.50304378 -4.45254066 -0.45280074 0 0 Z " fill="#16375F" transform="translate(768,409)"/>
<path d="M0 0 C2.31 0 4.62 0 7 0 C7 10.23 7 20.46 7 31 C10.96 31 14.92 31 19 31 C19 32.98 19 34.96 19 37 C12.73 37 6.46 37 0 37 C0 24.79 0 12.58 0 0 Z " fill="#11325B" transform="translate(974,709)"/>
<path d="M0 0 C2.64 0 5.28 0 8 0 C8 12.21 8 24.42 8 37 C5.36 37 2.72 37 0 37 C0 24.79 0 12.58 0 0 Z " fill="#214066" transform="translate(549,709)"/>
<path d="M0 0 C2.31 0 4.62 0 7 0 C7 12.21 7 24.42 7 37 C4.69 37 2.38 37 0 37 C0 24.79 0 12.58 0 0 Z " fill="#11325B" transform="translate(1064,709)"/>
<path d="M0 0 C2.31 0 4.62 0 7 0 C7 12.21 7 24.42 7 37 C4.69 37 2.38 37 0 37 C0 24.79 0 12.58 0 0 Z " fill="#11325B" transform="translate(1002,709)"/>
<path d="M0 0 C1.588125 -0.061875 3.17625 -0.12375 4.8125 -0.1875 C6.15248047 -0.23970703 6.15248047 -0.23970703 7.51953125 -0.29296875 C10 0 10 0 11.796875 1.35546875 C13 3 13 3 13.4375 5.5 C13 8 13 8 11.5625 9.8125 C7.66280981 11.6196735 4.2730991 11.18851908 0 11 C0 7.37 0 3.74 0 0 Z " fill="#E7F1F3" transform="translate(669,715)"/>
<path d="M0 0 C8.625 -0.25 8.625 -0.25 12 2 C12.375 5.5 12.375 5.5 12 9 C7.7975546 11.80163026 4.99895065 11.14489712 0 11 C0 7.37 0 3.74 0 0 Z " fill="#EFF8F9" transform="translate(849,715)"/>
<path d="M0 0 C8.625 -0.25 8.625 -0.25 12 2 C12.65228645 7.10957722 12.65228645 7.10957722 10.76953125 9.6796875 C8.47644549 11.39064332 7.13999998 11.31043478 4.3125 11.1875 C2.889375 11.125625 1.46625 11.06375 0 11 C0 7.37 0 3.74 0 0 Z " fill="#EBF5F7" transform="translate(482,715)"/>
<path d="M0 0 C1.423125 -0.061875 2.84625 -0.12375 4.3125 -0.1875 C5.51326172 -0.23970703 5.51326172 -0.23970703 6.73828125 -0.29296875 C9 0 9 0 10.76953125 1.35546875 C12 3 12 3 12.375 5.5 C11.92687984 8.48746775 11.36602774 9.1876123 9 11 C6.73828125 11.29296875 6.73828125 11.29296875 4.3125 11.1875 C2.889375 11.125625 1.46625 11.06375 0 11 C0 7.37 0 3.74 0 0 Z " fill="#F0F9FA" transform="translate(519,715)"/>
<path d="M0 0 C2.63595772 2.63595772 3.07702112 5.06187181 4.125 8.625 C4.47820313 9.81351563 4.83140625 11.00203125 5.1953125 12.2265625 C5.46085938 13.14179687 5.72640625 14.05703125 6 15 C2.37 15 -1.26 15 -5 15 C-2.05357143 3.75 -2.05357143 3.75 0 0 Z " fill="#E3EDF1" transform="translate(635,718)"/>
<path d="M0 0 C2.91308822 1.45654411 3.05452316 3.35387648 4.125 6.375 C4.47820313 7.35210938 4.83140625 8.32921875 5.1953125 9.3359375 C6 12 6 12 6 15 C2.7 15 -0.6 15 -4 15 C-3.43179252 9.54520815 -2.05362055 5.08940744 0 0 Z " fill="#E4EEF1" transform="translate(814,718)"/>
</svg>
