<?xml version="1.0" encoding="UTF-8"?>
<svg version="1.1" xmlns="http://www.w3.org/2000/svg" width="130" height="130">
<path d="M0 0 C0.93199219 0.42410156 1.86398438 0.84820313 2.82421875 1.28515625 C19.25822019 9.51361722 30.61623547 22.83709209 37 40 C41.47871747 54.17490993 41.37144033 73.44332166 35 87 C34.57589844 87.93199219 34.15179688 88.86398438 33.71484375 89.82421875 C25.48638278 106.25822019 12.16290791 117.61623547 -5 124 C-19.17490993 128.47871747 -38.44332166 128.37144033 -52 122 C-52.93199219 121.57589844 -53.86398438 121.15179688 -54.82421875 120.71484375 C-71.25822019 112.48638278 -82.61623547 99.16290791 -89 82 C-93.47871747 67.82509007 -93.37144033 48.55667834 -87 35 C-86.57589844 34.06800781 -86.15179688 33.13601562 -85.71484375 32.17578125 C-77.48638278 15.74177981 -64.16290791 4.38376453 -47 -2 C-32.82509007 -6.47871747 -13.55667834 -6.37144033 0 0 Z " fill="#F3FCFC" transform="translate(91,4)"/>
<path d="M0 0 C1.67334039 0.98879205 3.34151823 1.98648336 5 3 C7.7004039 2.35336433 7.7004039 2.35336433 10 1 C13.47143564 -0.73571782 17.20443818 -0.46645793 21 0 C24.82468048 1.98316766 28.09067421 4.07527477 30 8 C30.82245863 13.21905846 30.41789918 17.70292421 27.47265625 22.2421875 C25.00681013 25.18550515 22.15231597 27.63906311 19.21875 30.10546875 C16.9544456 31.97641844 16.9544456 31.97641844 14.90625 34.17578125 C11.59406976 37.34542915 7.79267137 37.52879086 3.39453125 37.46484375 C-1.20459203 36.57202863 -3.85603793 33.26948147 -7 30 C-7.80179688 29.24332031 -8.60359375 28.48664063 -9.4296875 27.70703125 C-14.44180849 22.92710116 -17.60164069 19.65162702 -18.375 12.5625 C-17.82731693 7.35951082 -15.73712792 4.48896679 -11.8125 1.125 C-7.8408991 -0.46364036 -4.22402299 -0.61664569 0 0 Z " fill="#49A5BD" transform="translate(19,47)"/>
<path d="M0 0 C4.69912631 2.69882254 8.48641763 6.09180025 12.3125 9.875 C12.84939453 10.37902344 13.38628906 10.88304687 13.93945312 11.40234375 C17.36529943 14.78066886 18.73391372 17.18168091 19 22 C17.35 23.32 15.7 24.64 14 26 C13.814375 25.175 13.62875 24.35 13.4375 23.5 C11.49311965 18.76585653 8.54748023 15.62945981 5 12 C4.48953125 11.46503906 3.9790625 10.93007813 3.453125 10.37890625 C0.74943114 7.81330428 -0.97863039 7.00325977 -4.6875 6.4375 C-7.99990573 6.70390271 -7.99990573 6.70390271 -9.9375 8.6875 C-11.22326783 11.48593587 -11.52014359 12.95344469 -11 16 C-10.360625 16.7425 -9.72125 17.485 -9.0625 18.25 C-6.24323213 22.00902383 -6.20010614 25.4075641 -6 30 C-7.1055189 29.06409496 -8.20935453 28.12620142 -9.3125 27.1875 C-9.92738281 26.66542969 -10.54226562 26.14335938 -11.17578125 25.60546875 C-15.71871955 21.60729393 -17.69875826 18.76138263 -18.375 12.5625 C-17.82731693 7.35951082 -15.73712792 4.48896679 -11.8125 1.125 C-7.88434421 -0.44626232 -4.16022829 -0.86756813 0 0 Z " fill="#5D7791" transform="translate(19,47)"/>
<path d="M0 0 C3.82468048 1.98316766 7.09067421 4.07527477 9 8 C10.02762301 14.52096577 8.77969151 18.68800112 5 24 C2.375 26.9375 2.375 26.9375 0 29 C-0.66 29 -1.32 29 -2 29 C-1.90234375 27.11197917 -1.8046875 25.22395833 -1.70703125 23.3359375 C-2.45080914 17.40554845 -6.02803955 13.62240355 -10.1875 9.625 C-11.08855469 8.75101563 -11.98960938 7.87703125 -12.91796875 6.9765625 C-13.60503906 6.32429688 -14.29210937 5.67203125 -15 5 C-10.16212609 0.00086363 -6.890344 -0.84679312 0 0 Z " fill="#76CFDE" transform="translate(40,47)"/>
<path d="M0 0 C3.11104221 1.26072477 4.23270983 2.92354418 5.9375 5.78515625 C6.5161979 8.75387649 6.33701456 10.68891844 5.9375 13.78515625 C3.74996717 16.47750435 2.35326045 16.72452452 -1.0625 17.22265625 C-4.0625 16.78515625 -4.0625 16.78515625 -6.4375 15.22265625 C-8.74087564 11.7675928 -8.76560804 9.8631829 -8.0625 5.78515625 C-6.03815084 2.74210236 -3.9188158 -0.40820998 0 0 Z " fill="#F1FBFC" transform="translate(26.0625,61.21484375)"/>
<path d="M0 0 C1.65 0.33 3.3 0.66 5 1 C5 1.66 5 2.32 5 3 C5.66 2.67 6.32 2.34 7 2 C9.3329866 1.95977609 11.66706666 1.95679753 14 2 C14 4.64 14 7.28 14 10 C4.58997722 11.33257403 4.58997722 11.33257403 0 10 C-1.125 2.25 -1.125 2.25 0 0 Z " fill="#758BA2" transform="translate(99,63)"/>
<path d="M0 0 C6.27586207 -0.48275862 6.27586207 -0.48275862 9.4375 1.625 C11.45932313 4.69817115 11.52755517 6.38247881 11 10 C9.625 12.375 9.625 12.375 8 14 C7.34 14 6.68 14 6 14 C4.6459068 12.01399663 3.31542376 10.01182457 2 8 C0.70317626 6.63113049 -0.61823134 5.2830709 -2 4 C-1.34 2.68 -0.68 1.36 0 0 Z " fill="#F0FAFB" transform="translate(32,53)"/>
<path d="M0 0 C0.66 0.33 1.32 0.66 2 1 C1.38821244 4.65396407 -0.1664456 6.86042559 -2.4375 9.75 C-3.05496094 10.54921875 -3.67242188 11.3484375 -4.30859375 12.171875 C-5.14583984 13.07679687 -5.14583984 13.07679687 -6 14 C-8 14 -8 14 -9.6875 12.4375 C-11.56631438 8.9482733 -10.95974358 6.77042121 -10 3 C-7.66446519 -1.02230995 -4.26877068 -0.31045605 0 0 Z " fill="#EEF7F9" transform="translate(18,53)"/>
<path d="M0 0 C1.98 1.65 3.96 3.3 6 5 C3.66666667 7.33333333 1.33333333 9.66666667 -1 12 C-1.39764263 13.98821313 -1.73775349 15.98944339 -2 18 C-5.40062014 16.59284684 -6.89229698 14.97131772 -9 12 C-8.27683594 11.07767578 -8.27683594 11.07767578 -7.5390625 10.13671875 C-6.90742188 9.32847656 -6.27578125 8.52023438 -5.625 7.6875 C-4.99851562 6.88699219 -4.37203125 6.08648437 -3.7265625 5.26171875 C-2.42243282 3.55336788 -1.19218183 1.78827274 0 0 Z " fill="#77CEDD" transform="translate(20,55)"/>
<path d="M0 0 C3.375 -0.125 3.375 -0.125 7 0 C7.66 0.66 8.32 1.32 9 2 C8.6730244 4.61580479 8.17960932 6.64078137 7 9 C5.68 9 4.36 9 3 9 C2.67 10.32 2.34 11.64 2 13 C1.34 13 0.68 13 0 13 C0 8.71 0 4.42 0 0 Z " fill="#3F5B7B" transform="translate(84,65)"/>
<path d="M0 0 C2.4375 0.1875 2.4375 0.1875 3.4375 1.1875 C3.625 4.125 3.625 4.125 3.4375 7.1875 C2.7775 7.8475 2.1175 8.5075 1.4375 9.1875 C-3.11805556 8.63194444 -3.11805556 8.63194444 -4.5625 7.1875 C-4.75 4.75 -4.75 4.75 -4.5625 2.1875 C-2.5625 0.1875 -2.5625 0.1875 0 0 Z " fill="#2F4D71" transform="translate(69.5625,64.8125)"/>
<path d="M0 0 C-0.33 1.32 -0.66 2.64 -1 4 C-6.61 4 -12.22 4 -18 4 C-17.67 2.68 -17.34 1.36 -17 0 C-13 0 -13 0 -11.0625 0.625 C-8.88287127 1.21003586 -8.88287127 1.21003586 -6.5 0 C-3.74661122 -1.10135551 -2.72084587 -1.00772069 0 0 Z " fill="#96A8B9" transform="translate(82,80)"/>
<path d="M0 0 C1.65 0.33 3.3 0.66 5 1 C6.125 7.625 6.125 7.625 5 11 C3.35 10.67 1.7 10.34 0 10 C-1.125 2.25 -1.125 2.25 0 0 Z " fill="#CCD8E0" transform="translate(99,63)"/>
<path d="M0 0 C2.625 0.375 2.625 0.375 5 1 C5.625 3.3125 5.625 3.3125 6 6 C5.01 7.485 5.01 7.485 4 9 C1.4375 9.25 1.4375 9.25 -1 9 C-2 8 -2 8 -2.1875 5.0625 C-2 2 -2 2 0 0 Z " fill="#6D849D" transform="translate(73,49)"/>
<path d="M0 0 C0 1.65 0 3.3 0 5 C-3.96 5 -7.92 5 -12 5 C-11.67 3.68 -11.34 2.36 -11 1 C-7.32589215 -0.17571451 -3.83070817 -0.07366746 0 0 Z " fill="#8095AA" transform="translate(102,79)"/>
<path d="M0 0 C0.66 0 1.32 0 2 0 C2 1.32 2 2.64 2 4 C3.65 4 5.3 4 7 4 C7 2.68 7 1.36 7 0 C7.66 0 8.32 0 9 0 C9 3.63 9 7.26 9 11 C8.34 11 7.68 11 7 11 C7 9.35 7 7.7 7 6 C5.35 6 3.7 6 2 6 C2 7.32 2 8.64 2 10 C1.34 10 0.68 10 0 10 C0 6.7 0 3.4 0 0 Z " fill="#29486C" transform="translate(54,63)"/>
<path d="M0 0 C2.64 0 5.28 0 8 0 C8 2.64 8 5.28 8 8 C7.34 8 6.68 8 6 8 C6 6.02 6 4.04 6 2 C5.01 2 4.02 2 3 2 C3 3.98 3 5.96 3 8 C2.01 8 1.02 8 0 8 C0 5.36 0 2.72 0 0 Z " fill="#456080" transform="translate(89,50)"/>
<path d="M0 0 C1.65 0 3.3 0 5 0 C5 1.32 5 2.64 5 4 C5.2981424 5.34164079 5.62243192 6.67851173 6 8 C4.02 8.33 2.04 8.66 0 9 C-0.33 8.01 -0.66 7.02 -1 6 C1.475 6.495 1.475 6.495 4 7 C4 6.34 4 5.68 4 5 C2.35 4.67 0.7 4.34 -1 4 C-0.67 2.68 -0.34 1.36 0 0 Z " fill="#3F5B7B" transform="translate(76,65)"/>
<path d="M0 0 C1.98 0 3.96 0 6 0 C6.33 1.32 6.66 2.64 7 4 C5.35 4 3.7 4 2 4 C2 4.66 2 5.32 2 6 C3.65 6 5.3 6 7 6 C6.67 6.66 6.34 7.32 6 8 C3.625 8.125 3.625 8.125 1 8 C0.34 7.34 -0.32 6.68 -1 6 C-0.625 2.875 -0.625 2.875 0 0 Z " fill="#2E4B6F" transform="translate(100,50)"/>
<path d="M0 0 C0.99 0 1.98 0 3 0 C3 4.29 3 8.58 3 13 C2.01 13 1.02 13 0 13 C0 8.71 0 4.42 0 0 Z " fill="#637B95" transform="translate(61,46)"/>
<path d="M0 0 C0.99 0 1.98 0 3 0 C3 3.96 3 7.92 3 12 C2.01 12 1.02 12 0 12 C0 8.04 0 4.08 0 0 Z " fill="#57708C" transform="translate(115,62)"/>
<path d="M0 0 C3.3 0 6.6 0 10 0 C10 1.32 10 2.64 10 4 C8.02 4 6.04 4 4 4 C4 3.34 4 2.68 4 2 C2.02 2.99 2.02 2.99 0 4 C0 2.68 0 1.36 0 0 Z " fill="#899DB1" transform="translate(53,80)"/>
<path d="M0 0 C1.32 0.99 2.64 1.98 4 3 C3.34 4.32 2.68 5.64 2 7 C1.01 7 0.02 7 -1 7 C-2.6875 5 -2.6875 5 -4 3 C-2.68 2.01 -1.36 1.02 0 0 Z " fill="#419FB8" transform="translate(25,52)"/>
<path d="M0 0 C3.3 0 6.6 0 10 0 C9.01 0.495 9.01 0.495 8 1 C8 1.66 8 2.32 8 3 C8.66 3.33 9.32 3.66 10 4 C6.7 4 3.4 4 0 4 C0 2.68 0 1.36 0 0 Z " fill="#8297AB" transform="translate(115,80)"/>
<path d="M0 0 C0.99 0 1.98 0 3 0 C3 0.66 3 1.32 3 2 C2.34 2 1.68 2 1 2 C1.33 2.99 1.66 3.98 2 5 C1.72230092 7.3406065 1.39460023 9.67624308 1 12 C0.34 12 -0.32 12 -1 12 C-1.2226746 10.56465159 -1.42761906 9.12654475 -1.625 7.6875 C-1.74101563 6.88699219 -1.85703125 6.08648437 -1.9765625 5.26171875 C-2 3 -2 3 0 0 Z " fill="#314E72" transform="translate(67,46)"/>
<path d="M0 0 C0.99 0.33 1.98 0.66 3 1 C3.08159574 5.16138263 2.98248524 8.9472484 2 13 C1.34 13 0.68 13 0 13 C0 8.71 0 4.42 0 0 Z " fill="#28466B" transform="translate(84,65)"/>
<path d="M0 0 C2.66666667 0 5.33333333 0 8 0 C8.33 1.32 8.66 2.64 9 4 C6.03 4 3.06 4 0 4 C0 2.68 0 1.36 0 0 Z " fill="#70879F" transform="translate(64,80)"/>
<path d="M0 0 C0.66 0 1.32 0 2 0 C2 0.66 2 1.32 2 2 C2.66 2 3.32 2 4 2 C4 2.66 4 3.32 4 4 C3.34 4 2.68 4 2 4 C2 5.65 2 7.3 2 9 C2.66 9.33 3.32 9.66 4 10 C2.68 10 1.36 10 0 10 C-1.125 2.25 -1.125 2.25 0 0 Z " fill="#28476B" transform="translate(99,63)"/>
<path d="M0 0 C0 4.29 0 8.58 0 13 C-0.33 13 -0.66 13 -1 13 C-1.37125 11.1128125 -1.37125 11.1128125 -1.75 9.1875 C-2.48837994 6.16442273 -2.79382006 5.1940517 -5.125 3 C-5.74375 2.67 -6.3625 2.34 -7 2 C-1.125 0 -1.125 0 0 0 Z " fill="#C1CED8" transform="translate(84,65)"/>
<path d="M0 0 C0.99 0 1.98 0 3 0 C3 2.97 3 5.94 3 9 C2.01 9 1.02 9 0 9 C0 6.03 0 3.06 0 0 Z " fill="#58718D" transform="translate(94,65)"/>
<path d="M0 0 C2.0625 0.4375 2.0625 0.4375 4 1 C3.01 1.495 3.01 1.495 2 2 C1.34786708 4.02463255 1.34786708 4.02463255 1 6 C2.65 6 4.3 6 6 6 C5.67 6.66 5.34 7.32 5 8 C3.33388095 8.042721 1.66617115 8.04063832 0 8 C-1 7 -1 7 -1.125 4 C-1 1 -1 1 0 0 Z " fill="#2B496D" transform="translate(72,50)"/>
<path d="M0 0 C0.99 0.33 1.98 0.66 3 1 C2.67 4.63 2.34 8.26 2 12 C1.34 12 0.68 12 0 12 C0 8.04 0 4.08 0 0 Z " fill="#445F7F" transform="translate(85,46)"/>
<path d="M0 0 C2.31 0 4.62 0 7 0 C7 1.65 7 3.3 7 5 C5.35 4.67 3.7 4.34 2 4 C2.33 3.01 2.66 2.02 3 1 C2.01 0.67 1.02 0.34 0 0 Z " fill="#B0C0CC" transform="translate(95,79)"/>
<path d="M0 0 C2.16874252 0.50603992 3.99967627 0.99983813 6 2 C6.33 1.34 6.66 0.68 7 0 C6.67 1.32 6.34 2.64 6 4 C4.35 4.33 2.7 4.66 1 5 C0.67 3.35 0.34 1.7 0 0 Z " fill="#94A6B8" transform="translate(101,52)"/>
<path d="M0 0 C0.66 0 1.32 0 2 0 C2 1.98 2 3.96 2 6 C-0.31 6.33 -2.62 6.66 -5 7 C-5 6.34 -5 5.68 -5 5 C-3.68 4.67 -2.36 4.34 -1 4 C-0.67 2.68 -0.34 1.36 0 0 Z " fill="#2B496E" transform="translate(111,67)"/>
<path d="M0 0 C1.32 0 2.64 0 4 0 C4 2.64 4 5.28 4 8 C3.34 8 2.68 8 2 8 C2 6.02 2 4.04 2 2 C1.01 1.67 0.02 1.34 -1 1 C-0.67 0.67 -0.34 0.34 0 0 Z " fill="#395678" transform="translate(93,50)"/>
<path d="M0 0 C0.66 0 1.32 0 2 0 C2.33 0.66 2.66 1.32 3 2 C5.02463255 2.65213292 5.02463255 2.65213292 7 3 C7 3.66 7 4.32 7 5 C4.69 5 2.38 5 0 5 C0 3.35 0 1.7 0 0 Z " fill="#BECCD6" transform="translate(73,67)"/>
<path d="M0 0 C1.32 0 2.64 0 4 0 C4 1.65 4 3.3 4 5 C2.68 4.67 1.36 4.34 0 4 C0 2.68 0 1.36 0 0 Z " fill="#D6E1E7" transform="translate(67,67)"/>
<path d="M0 0 C0.99 0 1.98 0 3 0 C3 1.65 3 3.3 3 5 C1.68 4.67 0.36 4.34 -1 4 C-0.67 2.68 -0.34 1.36 0 0 Z " fill="#DCE6EA" transform="translate(87,67)"/>
</svg>
